<svg xmlns="http://www.w3.org/2000/svg" width="170" height="230" viewBox="0 0 170 230"><path d="M60.166 166.564s-7.266 4.226 5.172 5.656c15.068 1.72 22.77 1.473 39.374-1.67 0 0 4.365 2.737 10.462 5.108-37.224 15.954-84.245-.924-55.008-9.094M55.618 145.746s-8.15 6.033 4.297 7.32c16.096 1.66 28.807 1.797 50.803-2.44 0 0 3.042 3.086 7.826 4.772-45.006 13.16-95.135 1.038-62.926-9.652" fill="#5382a1"/><path d="M93.964 110.43c9.172 10.56-2.41 20.064-2.41 20.064s23.29-12.023 12.593-27.078c-9.99-14.04-17.65-21.016 23.82-45.068 0 0-65.095 16.258-34.003 52.083" fill="#e76f00"/><path d="M143.195 181.963s5.378 4.43-5.922 7.858c-21.486 6.51-89.428 8.476-108.3.26-6.786-2.95 5.937-7.047 9.94-7.906 4.173-.905 6.558-.737 6.558-.737-7.544-5.315-48.768 10.437-20.938 14.948 75.895 12.308 138.35-5.542 118.663-14.422M63.66 124.176s-34.56 8.208-12.238 11.19c9.425 1.26 28.213.975 45.713-.49 14.302-1.207 28.663-3.772 28.663-3.772s-5.043 2.16-8.69 4.65c-35.096 9.23-102.892 4.937-83.374-4.504 16.506-7.98 29.927-7.074 29.927-7.074M125.656 158.83c35.675-18.54 19.18-36.354 7.667-33.954-2.822.587-4.08 1.096-4.08 1.096s1.048-1.64 3.05-2.35c22.775-8.01 40.292 23.616-7.354 36.14 0 .002.55-.492.716-.933" fill="#5382a1"/><path d="M104.147 19.51s19.758 19.765-18.74 50.157c-30.87 24.38-7.038 38.28-.012 54.16-18.02-16.257-31.243-30.57-22.37-43.89 13.02-19.552 49.094-29.032 41.122-60.426" fill="#e76f00"/><path d="M67.166 209.063c34.244 2.192 86.83-1.216 88.074-17.42 0 0-2.393 6.143-28.3 11.022-29.228 5.5-65.276 4.858-86.657 1.333 0 0 4.377 3.622 26.883 5.065" fill="#5382a1"/></svg>